<?xml version="1.0" standalone="no"?>
<!DOCTYPE svg PUBLIC "-//W3C//DTD SVG 20010904//EN"
 "http://www.w3.org/TR/2001/REC-SVG-20010904/DTD/svg10.dtd">
<svg version="1.0" xmlns="http://www.w3.org/2000/svg"
 width="260.000000pt" height="260.000000pt" viewBox="0 0 260.000000 260.000000"
 preserveAspectRatio="xMidYMid meet">
<metadata>
Created by potrace 1.11, written by Peter Selinger 2001-2013
</metadata>
<g transform="translate(0.000000,260.000000) scale(0.100000,-0.100000)"
fill="#000000" stroke="none">
<path d="M20 1495 l0 -35 110 0 110 0 0 35 0 35 -110 0 -110 0 0 -35z"/>
<path d="M1244 1514 c3 -9 11 -47 18 -85 10 -63 13 -69 35 -69 23 0 24 2 18
43 -17 105 -26 127 -52 127 -19 0 -24 -4 -19 -16z"/>
<path d="M2354 1516 c-3 -8 -4 -23 -2 -33 3 -16 15 -18 113 -18 l110 0 3 33 3
32 -111 0 c-87 0 -112 -3 -116 -14z"/>
<path d="M1477 1503 c-2 -5 -14 -38 -26 -75 -42 -128 -135 -239 -249 -297 -52
-27 -53 -27 -33 -45 19 -18 21 -17 74 13 118 67 201 167 253 303 15 40 32 76
38 80 6 4 -2 11 -17 17 -34 13 -35 13 -40 4z"/>
<path d="M290 1491 c0 -6 25 -114 55 -241 30 -127 55 -233 55 -236 0 -2 22 -4
49 -4 34 0 51 -4 55 -15 4 -12 30 -15 141 -15 l135 0 0 45 0 45 -135 0 c-116
0 -137 -2 -142 -16 -6 -17 -14 11 -83 309 l-32 137 -49 0 c-27 0 -49 -4 -49
-9z"/>
<path d="M871 1466 c-56 -90 -69 -235 -31 -347 33 -97 44 -109 101 -109 27 0
49 4 49 9 0 5 -12 34 -26 66 -48 103 -44 275 8 378 l18 37 -49 0 c-45 0 -51
-3 -70 -34z"/>
<path d="M1073 1494 c-13 -6 36 -163 52 -164 6 0 16 4 24 9 12 8 10 22 -13 85
-26 72 -35 81 -63 70z"/>
<path d="M1627 1451 c54 -109 53 -268 -2 -388 l-24 -53 48 0 c57 0 70 12 102
90 18 44 23 75 23 160 1 100 -1 109 -32 173 l-33 67 -53 0 -53 0 24 -49z"/>
<path d="M2206 1483 c-13 -43 -106 -446 -106 -459 0 -10 13 -14 44 -14 25 0
47 4 50 8 4 7 116 468 116 478 0 2 -22 4 -49 4 -39 0 -51 -4 -55 -17z"/>
<path d="M1814 1056 c-3 -8 -4 -27 -2 -43 l3 -28 138 -3 137 -3 0 46 0 45
-135 0 c-108 0 -137 -3 -141 -14z"/>
</g>
</svg>
